<svg width="29" height="29" viewBox="0 0 29 29" fill="none" xmlns="http://www.w3.org/2000/svg">
<g opacity="0.5">
<path d="M27 1.42379C27 1.42379 24.7069 3.12654 23.4318 3.60917C22.7474 2.62005 21.8378 1.91899 20.8261 1.60079C19.8144 1.28261 18.7494 1.36264 17.7751 1.83009C16.8008 2.29753 15.9641 3.12981 15.3784 4.21437C14.7926 5.29895 14.486 6.58346 14.5 7.89422V9.32257C12.503 9.38765 10.5242 8.83095 8.73978 7.70202C6.95539 6.57309 5.42082 4.90701 4.27273 2.85214C4.27273 2.85214 -0.272727 15.7074 9.95455 21.4208C7.61424 23.4174 4.82632 24.4187 2 24.2775C12.2273 31.4192 24.7273 24.2775 24.7273 7.85137C24.7262 7.4535 24.6958 7.05662 24.6364 6.66584C25.7961 5.22819 27 1.42379 27 1.42379Z" stroke="black" stroke-width="2.08987" stroke-linecap="round" stroke-linejoin="round"/>
</g>
</svg>
